# xmcd CD database file
#
# Track frame offsets:
#	150
#	18552
#	34517
#	50204
#	64772
#	80267
#	95400
#	109987
#	123820
#	138182
#	152931
#	170242
#
# Disc length: 2542 seconds
#
# Revision: 0
# Processed by: cddbd v1.5.2PL0 Copyright (c) Steve Scherf et al.
# Submitted via: CDex 1.70beta2
#
DISCID=a009ec0c
DTITLE=The Healing Garden - Pure Joy
DYEAR=2004
DGENRE=New Age
TTITLE0=Mon Bijou
TTITLE1=Cacharel
TTITLE2=Rafaga de Luz
TTITLE3=Mucho Fuerte
TTITLE4=Mosquito
TTITLE5=A Night in Montreal
TTITLE6=Take Your Time
TTITLE7=Place du Forum
TTITLE8=The Garden
TTITLE9=No. 68
TTITLE10=Hot Nights
TTITLE11=Le Premier Pastis
EXTD=YEAR: 2004
EXTT0=
EXTT1=
EXTT2=
EXTT3=
EXTT4=
EXTT5=
EXTT6=
EXTT7=
EXTT8=
EXTT9=
EXTT10=
EXTT11=
PLAYORDER=
